<?xml version="1.0" encoding="UTF-8" standalone="no"?>
<!-- Uploaded to: SVG Repo, www.svgrepo.com, Generator: SVG Repo Mixer Tools -->

<svg
   width="800px"
   height="800px"
   viewBox="0 0 24 48"
   fill="none"
   version="1.1"
   id="svg4"
   sodipodi:docname="adhesive-plaster-2-svgrepo-com.svg"
   inkscape:version="1.3.2 (091e20e, 2023-11-25, custom)"
   xmlns:inkscape="http://www.inkscape.org/namespaces/inkscape"
   xmlns:sodipodi="http://sodipodi.sourceforge.net/DTD/sodipodi-0.dtd"
   xmlns="http://www.w3.org/2000/svg"
   xmlns:svg="http://www.w3.org/2000/svg">
  <defs
     id="defs4" />
  <sodipodi:namedview
     id="namedview4"
     pagecolor="#ffffff"
     bordercolor="#000000"
     borderopacity="0.25"
     inkscape:showpageshadow="2"
     inkscape:pageopacity="0.0"
     inkscape:pagecheckerboard="0"
     inkscape:deskcolor="#d1d1d1"
     inkscape:zoom="1.01625"
     inkscape:cx="400"
     inkscape:cy="400"
     inkscape:window-width="1920"
     inkscape:window-height="1009"
     inkscape:window-x="-8"
     inkscape:window-y="-8"
     inkscape:window-maximized="1"
     inkscape:current-layer="svg4" />
  <path
     d="M12.765 20.4155C14.8777 22.5282 18.3029 22.5282 20.4155 20.4155C22.5282 18.3029 22.5282 14.8777 20.4155 12.765M12.765 20.4155L20.4155 12.765M12.765 20.4155L8.17476 15.8252M3.58447 11.235C1.47184 9.12233 1.47184 5.69709 3.58447 3.58447C5.69709 1.47184 9.12233 1.47184 11.235 3.58447M3.58447 11.235L11.235 3.58447M3.58447 11.235L5 12.6505M20.4155 12.765L19 11.3495M11.235 3.58447L15.8252 8.17476"
     stroke="#1C274C"
     stroke-width="1.5"
     stroke-linecap="round"
     id="path1" />
  <circle
     cx="9.17154"
     cy="12"
     r="1"
     transform="rotate(-45 9.17154 12)"
     fill="#1C274C"
     id="circle1" />
  <circle
     cx="11.9999"
     cy="14.8286"
     r="1"
     transform="rotate(-45 11.9999 14.8286)"
     fill="#1C274C"
     id="circle2" />
  <circle
     cx="11.9999"
     cy="9.17139"
     r="1"
     transform="rotate(-45 11.9999 9.17139)"
     fill="#1C274C"
     id="circle3" />
  <circle
     cx="14.8285"
     cy="12"
     r="1"
     transform="rotate(-45 14.8285 12)"
     fill="#1C274C"
     id="circle4" />
  <rect
     style="stroke:#000000;stroke-dasharray:none"
     id="qrPlaceholder"
     width="20.073801"
     height="20.073801"
     x="-10.407933"
     y="19.375238"
     fill="#32ff3b" 
     stroke-width="0.1" />
</svg>
