<?xml version="1.0" encoding="UTF-8" standalone="no"?>
<!-- Uploaded to: SVG Repo, www.svgrepo.com, Generator: SVG Repo Mixer Tools -->

<svg
   width="800px"
   height="800px"
   viewBox="0 0 24 48"
   fill="none"
   version="1.1"
   id="svg3"
   sodipodi:docname="align-horizonta-spacing-svgrepo-com.svg"
   inkscape:version="1.3.2 (091e20e, 2023-11-25, custom)"
   xmlns:inkscape="http://www.inkscape.org/namespaces/inkscape"
   xmlns:sodipodi="http://sodipodi.sourceforge.net/DTD/sodipodi-0.dtd"
   xmlns="http://www.w3.org/2000/svg"
   xmlns:svg="http://www.w3.org/2000/svg">
  <defs
     id="defs3" />
  <sodipodi:namedview
     id="namedview3"
     pagecolor="#ffffff"
     bordercolor="#000000"
     borderopacity="0.25"
     inkscape:showpageshadow="2"
     inkscape:pageopacity="0.0"
     inkscape:pagecheckerboard="0"
     inkscape:deskcolor="#d1d1d1"
     inkscape:zoom="1.01625"
     inkscape:cx="400"
     inkscape:cy="400"
     inkscape:window-width="1920"
     inkscape:window-height="1009"
     inkscape:window-x="-8"
     inkscape:window-y="-8"
     inkscape:window-maximized="1"
     inkscape:current-layer="svg3" />
  <path
     d="M3 2L3 22"
     stroke="#1C274C"
     stroke-width="1.5"
     stroke-linecap="round"
     id="path1" />
  <path
     d="M21 10L21 22M21 2L21 6"
     stroke="#1C274C"
     stroke-width="1.5"
     stroke-linecap="round"
     id="path2" />
  <path
     d="M8 15L8 16C8 17.8856 8 18.8284 8.58579 19.4142C9.17157 20 10.1144 20 12 20C13.8856 20 14.8284 20 15.4142 19.4142C16 18.8284 16 17.8856 16 16V8C16 6.11439 16 5.17157 15.4142 4.58579C14.8284 4 13.8856 4 12 4C10.1144 4 9.17157 4 8.58579 4.58579C8 5.17157 8 6.11438 8 8L8 11"
     stroke="#1C274C"
     stroke-width="1.5"
     stroke-linecap="round"
     id="path3" />
  <rect
     style="fill:none;stroke:#000000;stroke-dasharray:none"
     id="qrPlaceholder"
     width="20.073801"
     height="20.073801"
     x="2.0246866"
     y="24.059151"
     stroke-width="0.1" />
</svg>
