<?xml version="1.0" encoding="UTF-8" standalone="no"?>
<!-- Uploaded to: SVG Repo, www.svgrepo.com, Generator: SVG Repo Mixer Tools -->

<svg
   width="800px"
   height="800px"
   viewBox="0 0 48 24"
   fill="none"
   version="1.1"
   id="svg3"
   sodipodi:docname="align-left-svgrepo-com.svg"
   inkscape:version="1.3.2 (091e20e, 2023-11-25, custom)"
   xmlns:inkscape="http://www.inkscape.org/namespaces/inkscape"
   xmlns:sodipodi="http://sodipodi.sourceforge.net/DTD/sodipodi-0.dtd"
   xmlns="http://www.w3.org/2000/svg"
   xmlns:svg="http://www.w3.org/2000/svg">
  <defs
     id="defs3" />
  <sodipodi:namedview
     id="namedview3"
     pagecolor="#ffffff"
     bordercolor="#000000"
     borderopacity="0.25"
     inkscape:showpageshadow="2"
     inkscape:pageopacity="0.0"
     inkscape:pagecheckerboard="0"
     inkscape:deskcolor="#d1d1d1"
     inkscape:zoom="0.71859727"
     inkscape:cx="572.64343"
     inkscape:cy="365.29502"
     inkscape:window-width="1920"
     inkscape:window-height="1009"
     inkscape:window-x="-8"
     inkscape:window-y="-8"
     inkscape:window-maximized="1"
     inkscape:current-layer="svg3" />
  <path
     d="m 39.206642,5.4723247 h -5.5 c -0.93462,0 -1.40192,0 -1.75,0.20096 -0.22803,0.13165 -0.41739,0.32101 -0.54904,0.54904 -0.20096,0.34808 -0.20096,0.81538 -0.20096,1.75 0,0.93462 0,1.40192 0.20096,1.75 0.13165,0.22803 0.32101,0.4173903 0.54904,0.5490403 0.34808,0.20096 0.81538,0.20096 1.75,0.20096 h 9 c 0.9346,0 1.4019,0 1.75,-0.20096 0.228,-0.13165 0.4174,-0.3210103 0.549,-0.5490403 0.201,-0.34808 0.201,-0.81538 0.201,-1.75 0,-0.93462 0,-1.40192 -0.201,-1.75 -0.1316,-0.22803 -0.321,-0.41739 -0.549,-0.54904 -0.2796,-0.16142 -0.6361,-0.19318 -1.25,-0.19943"
     stroke="#1c274c"
     stroke-width="1.5"
     stroke-linecap="round"
     id="path1" />
  <path
     d="m 31.206642,16.972325 c 0,-0.9346 0,-1.4019 0.20096,-1.75 0.13165,-0.228 0.32101,-0.4174 0.54904,-0.549 0.34808,-0.201 0.81538,-0.201 1.75,-0.201 h 6 c 0.9346,0 1.4019,0 1.75,0.201 0.228,0.1316 0.4174,0.321 0.549,0.549 0.201,0.3481 0.201,0.8154 0.201,1.75 0,0.9346 0,1.4019 -0.201,1.75 -0.1316,0.228 -0.321,0.4174 -0.549,0.549 -0.3481,0.201 -0.8154,0.201 -1.75,0.201 h -6 c -0.93462,0 -1.40192,0 -1.75,-0.201 -0.22803,-0.1316 -0.41739,-0.321 -0.54904,-0.549 -0.20096,-0.3481 -0.20096,-0.8154 -0.20096,-1.75 z"
     stroke="#1c274c"
     stroke-width="1.5"
     id="path2" />
  <path
     d="M 27.206642,14.472325 V 2.4723247 m 0,20.0000003 v -4"
     stroke="#1c274c"
     stroke-width="1.5"
     stroke-linecap="round"
     id="path3" />
  <rect
     style="fill:none;stroke:#000000;stroke-dasharray:none"
     id="qrPlaceholder"
     width="20.073801"
     height="20.073801"
     x="3.7968323"
     y="2.5041437"
     stroke-width="0.1" />
</svg>
