<?xml version="1.0" encoding="UTF-8" standalone="no"?>
<!-- Uploaded to: SVG Repo, www.svgrepo.com, Generator: SVG Repo Mixer Tools -->

<svg
   width="800px"
   height="800px"
   viewBox="0 0 40 20"
   fill="none"
   version="1.1"
   id="svg3"
   sodipodi:docname="align-right-svgrepo-com.svg"
   inkscape:version="1.3.2 (091e20e, 2023-11-25, custom)"
   xmlns:inkscape="http://www.inkscape.org/namespaces/inkscape"
   xmlns:sodipodi="http://sodipodi.sourceforge.net/DTD/sodipodi-0.dtd"
   xmlns="http://www.w3.org/2000/svg"
   xmlns:svg="http://www.w3.org/2000/svg">
  <defs
     id="defs3" />
  <sodipodi:namedview
     id="namedview3"
     pagecolor="#ffffff"
     bordercolor="#000000"
     borderopacity="0.25"
     inkscape:showpageshadow="2"
     inkscape:pageopacity="0.0"
     inkscape:pagecheckerboard="0"
     inkscape:deskcolor="#d1d1d1"
     inkscape:zoom="1.01625"
     inkscape:cx="400"
     inkscape:cy="400"
     inkscape:window-width="1920"
     inkscape:window-height="1009"
     inkscape:window-x="-8"
     inkscape:window-y="-8"
     inkscape:window-maximized="1"
     inkscape:current-layer="svg3" />
  <path
     d="M21 14L21 2M21 22L21 18"
     stroke="#1C274C"
     stroke-width="1.5"
     stroke-linecap="round"
     id="path1" />
  <path
     d="M11 5L5.5 5C4.56538 5 4.09808 5 3.75 5.20096C3.52197 5.33261 3.33261 5.52197 3.20096 5.75C3 6.09808 3 6.56538 3 7.5C3 8.43462 3 8.90192 3.20096 9.25C3.33261 9.47803 3.52197 9.66739 3.75 9.79904C4.09808 10 4.56538 10 5.5 10L14.5 10C15.4346 10 15.9019 10 16.25 9.79904C16.478 9.66739 16.6674 9.47803 16.799 9.25C17 8.90192 17 8.43462 17 7.5C17 6.56538 17 6.09808 16.799 5.75C16.6674 5.52197 16.478 5.33261 16.25 5.20096C15.9704 5.03954 15.6139 5.00778 15 5.00153"
     stroke="#1C274C"
     stroke-width="1.5"
     stroke-linecap="round"
     id="path2" />
  <path
     d="M17 16.5C17 15.5654 17 15.0981 16.799 14.75C16.6674 14.522 16.478 14.3326 16.25 14.201C15.9019 14 15.4346 14 14.5 14H8.5C7.56538 14 7.09808 14 6.75 14.201C6.52197 14.3326 6.33261 14.522 6.20096 14.75C6 15.0981 6 15.5654 6 16.5C6 17.4346 6 17.9019 6.20096 18.25C6.33261 18.478 6.52197 18.6674 6.75 18.799C7.09808 19 7.56538 19 8.5 19H14.5C15.4346 19 15.9019 19 16.25 18.799C16.478 18.6674 16.6674 18.478 16.799 18.25C17 17.9019 17 17.4346 17 16.5Z"
     stroke="#1C274C"
     stroke-width="1.5"
     id="path3" />
  <rect
     style="fill:none;stroke:#000000;stroke-dasharray:none"
     id="qrPlaceholder"
     width="16.728168"
     height="16.728168"
     x="22.428505"
     y="2.9325025"
     stroke-width="0.0833333" />
</svg>
