<?xml version="1.0" encoding="UTF-8" standalone="no"?>
<!-- Uploaded to: SVG Repo, www.svgrepo.com, Generator: SVG Repo Mixer Tools -->

<svg
   width="800px"
   height="800px"
   viewBox="0 0 24 48"
   fill="none"
   version="1.1"
   id="svg3"
   sodipodi:docname="align-horizontal-center-svgrepo-com.svg"
   inkscape:version="1.3.2 (091e20e, 2023-11-25, custom)"
   xmlns:inkscape="http://www.inkscape.org/namespaces/inkscape"
   xmlns:sodipodi="http://sodipodi.sourceforge.net/DTD/sodipodi-0.dtd"
   xmlns="http://www.w3.org/2000/svg"
   xmlns:svg="http://www.w3.org/2000/svg">
  <defs
     id="defs3" />
  <sodipodi:namedview
     id="namedview3"
     pagecolor="#ffffff"
     bordercolor="#000000"
     borderopacity="0.25"
     inkscape:showpageshadow="2"
     inkscape:pageopacity="0.0"
     inkscape:pagecheckerboard="0"
     inkscape:deskcolor="#d1d1d1"
     inkscape:zoom="1.01625"
     inkscape:cx="400"
     inkscape:cy="400"
     inkscape:window-width="1920"
     inkscape:window-height="1009"
     inkscape:window-x="-8"
     inkscape:window-y="-8"
     inkscape:window-maximized="1"
     inkscape:current-layer="svg3" />
  <path
     d="M12 2L12 5M12 22L12 19M12 14L12 10"
     stroke="#1C274C"
     stroke-width="1.5"
     stroke-linecap="round"
     id="path1" />
  <path
     d="M13 5L7.5 5C6.56538 5 6.09808 5 5.75 5.20096C5.52197 5.33261 5.33261 5.52197 5.20096 5.75C5 6.09808 5 6.56538 5 7.5C5 8.43462 5 8.90192 5.20096 9.25C5.33261 9.47803 5.52197 9.66739 5.75 9.79904C6.09808 10 6.56538 10 7.5 10L16.5 10C17.4346 10 17.9019 10 18.25 9.79904C18.478 9.66739 18.6674 9.47803 18.799 9.25C19 8.90192 19 8.43462 19 7.5C19 6.56538 19 6.09808 18.799 5.75C18.6674 5.52197 18.478 5.33261 18.25 5.20096C17.9704 5.03954 17.6139 5.00778 17 5.00153"
     stroke="#1C274C"
     stroke-width="1.5"
     stroke-linecap="round"
     id="path2" />
  <path
     d="M7 16.5C7 15.5654 7 15.0981 7.20096 14.75C7.33261 14.522 7.52197 14.3326 7.75 14.201C8.09808 14 8.56538 14 9.5 14H14.5C15.4346 14 15.9019 14 16.25 14.201C16.478 14.3326 16.6674 14.522 16.799 14.75C17 15.0981 17 15.5654 17 16.5C17 17.4346 17 17.9019 16.799 18.25C16.6674 18.478 16.478 18.6674 16.25 18.799C15.9019 19 15.4346 19 14.5 19H9.5C8.56538 19 8.09808 19 7.75 18.799C7.52197 18.6674 7.33261 18.478 7.20096 18.25C7 17.9019 7 17.4346 7 16.5Z"
     stroke="#1C274C"
     stroke-width="1.5"
     id="path3" />
  <rect
     style="stroke:#000000;stroke-dasharray:none;stroke-width:0.05352"
     id="qrPlaceholder"
     width="10.746466"
     height="10.746466"
     x="21.422192"
     y="6.2652178"
     fill="#32ff3b" 
     stroke-width="0.0535347" />
</svg>
