<?xml version="1.0" encoding="UTF-8" standalone="no"?>
<!-- Uploaded to: SVG Repo, www.svgrepo.com, Generator: SVG Repo Mixer Tools -->

<svg
   width="800px"
   height="800px"
   viewBox="0 0 24 48"
   fill="none"
   version="1.1"
   id="svg3"
   sodipodi:docname="bell-bing-svgrepo-com.svg"
   inkscape:version="1.3.2 (091e20e, 2023-11-25, custom)"
   xmlns:inkscape="http://www.inkscape.org/namespaces/inkscape"
   xmlns:sodipodi="http://sodipodi.sourceforge.net/DTD/sodipodi-0.dtd"
   xmlns="http://www.w3.org/2000/svg"
   xmlns:svg="http://www.w3.org/2000/svg">
  <defs
     id="defs3" />
  <sodipodi:namedview
     id="namedview3"
     pagecolor="#ffffff"
     bordercolor="#000000"
     borderopacity="0.25"
     inkscape:showpageshadow="2"
     inkscape:pageopacity="0.0"
     inkscape:pagecheckerboard="0"
     inkscape:deskcolor="#d1d1d1"
     inkscape:zoom="1.01625"
     inkscape:cx="400"
     inkscape:cy="400"
     inkscape:window-width="1920"
     inkscape:window-height="1009"
     inkscape:window-x="-8"
     inkscape:window-y="-8"
     inkscape:window-maximized="1"
     inkscape:current-layer="svg3" />
  <path
     d="m 0.48708487,13.02583 v 4"
     stroke="#1c274c"
     stroke-width="1.5"
     stroke-linecap="round"
     id="path1" />
  <path
     d="m -4.0129151,26.02583 c 0.65503,1.7478 2.42246,3 4.49999997,3 0.2445,0 0.4847,-0.0173 0.71920003,-0.0508 m 3.7808,-2.9492 c -0.2671,0.7126 -0.719,1.3428 -1.3015,1.8393"
     stroke="#1c274c"
     stroke-width="1.5"
     stroke-linecap="round"
     id="path2" />
  <path
     d="m -2.4054651,9.6999703 c 0.87669,-0.43227 1.85744997,-0.67414 2.89254997,-0.67414 3.72740003,0 6.74910003,3.1362297 6.74910003,7.0049697 v 0.7046 c 0,0.84563 0.2412,1.67223 0.6931,2.37583 l 1.1074,1.7241 c 1.0116001,1.5748 0.2394,3.7154 -1.52,4.2134 -4.6023,1.3028 -9.45686,1.3028 -14.05924,0 -1.75931,-0.498 -2.53154,-2.6386 -1.52,-4.2134 l 1.10744,-1.7241 c 0.45192,-0.7036 0.69307,-1.5302 0.69307,-2.37583 v -0.7046 c 0,-1.07439 0.23304,-2.09228 0.64952,-3.0022"
     stroke="#1c274c"
     stroke-width="1.5"
     stroke-linecap="round"
     id="path3" />
  <rect
     style="stroke:#000000;stroke-dasharray:none"
     id="qrPlaceholder"
     width="20.073801"
     height="20.073801"
     x="12.407269"
     y="9.04321"
     fill="#32ff3b" 
     stroke-width="0.1" />
</svg>
