<?xml version="1.0" encoding="UTF-8" standalone="no"?>
<!-- Uploaded to: SVG Repo, www.svgrepo.com, Generator: SVG Repo Mixer Tools -->

<svg
   width="800px"
   height="800px"
   viewBox="0 0 24 48"
   fill="none"
   version="1.1"
   id="svg1"
   sodipodi:docname="bolt-svgrepo-com.svg"
   inkscape:version="1.3.2 (091e20e, 2023-11-25, custom)"
   xmlns:inkscape="http://www.inkscape.org/namespaces/inkscape"
   xmlns:sodipodi="http://sodipodi.sourceforge.net/DTD/sodipodi-0.dtd"
   xmlns="http://www.w3.org/2000/svg"
   xmlns:svg="http://www.w3.org/2000/svg">
  <defs
     id="defs1" />
  <sodipodi:namedview
     id="namedview1"
     pagecolor="#ffffff"
     bordercolor="#000000"
     borderopacity="0.25"
     inkscape:showpageshadow="2"
     inkscape:pageopacity="0.0"
     inkscape:pagecheckerboard="0"
     inkscape:deskcolor="#d1d1d1"
     inkscape:zoom="1.01625"
     inkscape:cx="400"
     inkscape:cy="400"
     inkscape:window-width="1920"
     inkscape:window-height="1009"
     inkscape:window-x="-8"
     inkscape:window-y="-8"
     inkscape:window-maximized="1"
     inkscape:current-layer="svg1" />
  <path
     d="m 5.5856432,31.394752 c -1.9794,2.678 -2.9691,4.0171 -3.8925,3.7341 -0.92330003,-0.283 -0.92330003,-1.9253 -0.92330003,-5.21 l 10e-5,-0.3095 c 0,-1.1848 0,-1.7771 -0.3786,-2.1487 l -0.02,-0.0192 c -0.3867,-0.3637 -1.00321,-0.3637 -2.23624997,-0.3637 -2.21887,0 -3.3283,0 -3.70325,-0.673 -0.00621,-0.0111 -0.01225,-0.0223 -0.01811,-0.0337 -0.35395,-0.6833 0.28841,-1.5524 1.57314,-3.29064 l 3.06213997,-4.14303 c 1.97933003,-2.67806 2.96903003,-4.01708 3.89243003,-3.73412 0.9233,0.28297 0.9233,1.92528 0.9233,5.20991 v 0.3097 c 0,1.18469 0,1.77704 0.3786,2.14859 l 0.02,0.01925 c 0.3867,0.36374 1.0032,0.36374 2.2362,0.36374 2.2189,0 3.3284,0 3.7032998,0.6729 0.0062,0.0111 0.0122,0.0224 0.0181,0.0337 0.354,0.6834 -0.2883998,1.5525 -1.5731998,3.2907"
     stroke="#1c274c"
     stroke-width="1.5"
     stroke-linecap="round"
     id="path1" />
  <rect
     style="stroke:#000000;stroke-dasharray:none"
     id="qrPlaceholder"
     width="20.073801"
     height="20.073801"
     x="13.069632"
     y="14.737528"
     fill="#32ff3b" 
     stroke-width="0.1" />
</svg>
