<?xml version="1.0" encoding="UTF-8" standalone="no"?>
<!-- Uploaded to: SVG Repo, www.svgrepo.com, Generator: SVG Repo Mixer Tools -->

<svg
   width="800px"
   height="800px"
   viewBox="0 0 24 48"
   fill="none"
   version="1.1"
   id="svg1"
   sodipodi:docname="bone-svgrepo-com.svg"
   inkscape:version="1.3.2 (091e20e, 2023-11-25, custom)"
   xmlns:inkscape="http://www.inkscape.org/namespaces/inkscape"
   xmlns:sodipodi="http://sodipodi.sourceforge.net/DTD/sodipodi-0.dtd"
   xmlns="http://www.w3.org/2000/svg"
   xmlns:svg="http://www.w3.org/2000/svg">
  <defs
     id="defs1" />
  <sodipodi:namedview
     id="namedview1"
     pagecolor="#ffffff"
     bordercolor="#000000"
     borderopacity="0.25"
     inkscape:showpageshadow="2"
     inkscape:pageopacity="0.0"
     inkscape:pagecheckerboard="0"
     inkscape:deskcolor="#d1d1d1"
     inkscape:zoom="1.01625"
     inkscape:cx="400"
     inkscape:cy="400"
     inkscape:window-width="1920"
     inkscape:window-height="1009"
     inkscape:window-x="-8"
     inkscape:window-y="-8"
     inkscape:window-maximized="1"
     inkscape:current-layer="svg1" />
  <path
     d="m 2.555462,29.966248 -1.4249,1.425 c -0.39350001,0.3935 -0.36930001,1.0429 -0.22080001,1.5792 0.28030001,1.0132 -0.1047,2.3087 -0.84793,3.0519 -0.98373,0.9837 -2.57865999,0.9837 -3.56238999,0 -0.98373,-0.9837 -0.98372,-2.5787 0,-3.5624 -0.98372,0.9837 -2.57866,0.9837 -3.56239,0 -0.98372,-0.9837 -0.98372,-2.5786 0,-3.5624 0.74322,-0.7432 2.03867,-1.1282 3.05191,-0.8479 0.53633,0.1485 1.18571,0.1727 1.5792,-0.2208 l 5.6998,-5.6998 c 0.3935,-0.39349 0.3693,-1.04287 0.2208,-1.5792 -0.2803,-1.01324 0.1047,-2.30868 0.8479,-3.05191 0.9838,-0.98372 2.5787,-0.98372 3.5624,0 0.9837,0.98373 0.9837,2.57867 0,3.56239 0.9837,-0.98372 2.5787,-0.98372 3.5624,0 0.9837,0.98373 0.9837,2.57866 0,3.56239 -0.7432,0.74323 -2.0387,1.12823 -3.0519,0.84793 -0.5363,-0.1485 -1.1857,-0.1727 -1.5792,0.2208 l -1.425,1.4249"
     stroke="#1c274c"
     stroke-width="1.5"
     stroke-linecap="round"
     stroke-linejoin="round"
     id="path1" />
  <rect
     style="stroke:#000000;stroke-dasharray:none"
     id="qrPlaceholder"
     width="20.073801"
     height="20.073801"
     x="14.317676"
     y="17.006458"
     fill="#32ff3b" 
     stroke-width="0.1" />
</svg>
