<?xml version="1.0" encoding="UTF-8" standalone="no"?>
<!-- Uploaded to: SVG Repo, www.svgrepo.com, Generator: SVG Repo Mixer Tools -->

<svg
   width="800px"
   height="800px"
   viewBox="0 0 24 48"
   fill="none"
   version="1.1"
   id="svg2"
   sodipodi:docname="box-minimalistic-svgrepo-com.svg"
   inkscape:version="1.3.2 (091e20e, 2023-11-25, custom)"
   xmlns:inkscape="http://www.inkscape.org/namespaces/inkscape"
   xmlns:sodipodi="http://sodipodi.sourceforge.net/DTD/sodipodi-0.dtd"
   xmlns="http://www.w3.org/2000/svg"
   xmlns:svg="http://www.w3.org/2000/svg">
  <defs
     id="defs2" />
  <sodipodi:namedview
     id="namedview2"
     pagecolor="#ffffff"
     bordercolor="#000000"
     borderopacity="0.25"
     inkscape:showpageshadow="2"
     inkscape:pageopacity="0.0"
     inkscape:pagecheckerboard="0"
     inkscape:deskcolor="#d1d1d1"
     inkscape:zoom="1.01625"
     inkscape:cx="400"
     inkscape:cy="400"
     inkscape:window-width="1920"
     inkscape:window-height="1009"
     inkscape:window-x="-8"
     inkscape:window-y="-8"
     inkscape:window-maximized="1"
     inkscape:current-layer="svg2" />
  <path
     d="M21.9844 10C21.9473 8.68893 21.8226 7.85305 21.4026 7.13974C20.8052 6.12523 19.7294 5.56066 17.5777 4.43152L15.5777 3.38197C13.8221 2.46066 12.9443 2 12 2C11.0557 2 10.1779 2.46066 8.42229 3.38197L6.42229 4.43152C4.27063 5.56066 3.19479 6.12523 2.5974 7.13974C2 8.15425 2 9.41667 2 11.9415V12.0585C2 14.5833 2 15.8458 2.5974 16.8603C3.19479 17.8748 4.27063 18.4393 6.42229 19.5685L8.42229 20.618C10.1779 21.5393 11.0557 22 12 22C12.9443 22 13.8221 21.5393 15.5777 20.618L17.5777 19.5685C19.7294 18.4393 20.8052 17.8748 21.4026 16.8603C21.8226 16.1469 21.9473 15.3111 21.9844 14"
     stroke="#1C274C"
     stroke-width="1.5"
     stroke-linecap="round"
     id="path1" />
  <path
     d="M21 7.5L12 12M12 12L3 7.5M12 12V21.5"
     stroke="#1C274C"
     stroke-width="1.5"
     stroke-linecap="round"
     id="path2" />
  <rect
     style="stroke:#000000;stroke-dasharray:none"
     id="qrPlaceholder"
     width="20.073801"
     height="20.073801"
     x="-8.1649075"
     y="23.792288"
     fill="#32ff3b" 
     stroke-width="0.1" />
  <path
     d="m 34.146762,31.431734 c -0.0371,-1.31107 -0.1618,-2.14695 -0.5818,-2.86026 -0.5974,-1.01451 -1.6732,-1.57908 -3.8249,-2.70822 l -2,-1.04955 c -1.7556,-0.92131 -2.6334,-1.38197 -3.5777,-1.38197 -0.9443,0 -1.8221,0.46066 -3.57771,1.38197 l -2,1.04955 c -2.15166,1.12914 -3.2275,1.69371 -3.82489,2.70822 -0.5974,1.01451 -0.5974,2.27693 -0.5974,4.80176 v 0.117 c 0,2.5248 0,3.7873 0.5974,4.8018 0.59739,1.0145 1.67323,1.579 3.82489,2.7082 l 2,1.0495 c 1.75561,0.9213 2.63341,1.382 3.57771,1.382 0.9443,0 1.8221,-0.4607 3.5777,-1.382 l 2,-1.0495 c 2.1517,-1.1292 3.2275,-1.6937 3.8249,-2.7082 0.42,-0.7134 0.5447,-1.5492 0.5818,-2.8603"
     stroke="#1c274c"
     stroke-width="1.5"
     stroke-linecap="round"
     id="path3" />
  <path
     d="m 32.98524,28.341328 -9,4.5 m 0,0 -9,-4.5 m 9,4.5 v 9.5"
     stroke="#1c274c"
     stroke-width="1.5"
     stroke-linecap="round"
     id="path4" />
</svg>
