<?xml version="1.0" encoding="UTF-8" standalone="no"?>
<!-- Uploaded to: SVG Repo, www.svgrepo.com, Generator: SVG Repo Mixer Tools -->

<svg
   width="800px"
   height="800px"
   viewBox="0 0 24 48"
   fill="none"
   version="1.1"
   id="svg7"
   sodipodi:docname="buildings-svgrepo-com.svg"
   inkscape:version="1.3.2 (091e20e, 2023-11-25, custom)"
   xmlns:inkscape="http://www.inkscape.org/namespaces/inkscape"
   xmlns:sodipodi="http://sodipodi.sourceforge.net/DTD/sodipodi-0.dtd"
   xmlns="http://www.w3.org/2000/svg"
   xmlns:svg="http://www.w3.org/2000/svg">
  <defs
     id="defs7" />
  <sodipodi:namedview
     id="namedview7"
     pagecolor="#ffffff"
     bordercolor="#000000"
     borderopacity="0.25"
     inkscape:showpageshadow="2"
     inkscape:pageopacity="0.0"
     inkscape:pagecheckerboard="0"
     inkscape:deskcolor="#d1d1d1"
     inkscape:zoom="1.01625"
     inkscape:cx="400"
     inkscape:cy="400"
     inkscape:window-width="1920"
     inkscape:window-height="1009"
     inkscape:window-x="-8"
     inkscape:window-y="-8"
     inkscape:window-maximized="1"
     inkscape:current-layer="svg7" />
  <path
     d="M22 22L2 22"
     stroke="#1C274C"
     stroke-width="1.5"
     stroke-linecap="round"
     id="path1" />
  <path
     d="M21 22V13M11.0044 5C11.0223 3.76022 11.1143 3.05733 11.5858 2.58579C12.1716 2 13.1144 2 15 2H17C18.8857 2 19.8285 2 20.4143 2.58579C21 3.17157 21 4.11438 21 6V9"
     stroke="#1C274C"
     stroke-width="1.5"
     stroke-linecap="round"
     id="path2" />
  <path
     d="M15 22V16M3 22V13M3 9C3 7.11438 3 6.17157 3.58579 5.58579C4.17157 5 5.11438 5 7 5H11C12.8856 5 13.8284 5 14.4142 5.58579C15 6.17157 15 7.11438 15 9V12"
     stroke="#1C274C"
     stroke-width="1.5"
     stroke-linecap="round"
     id="path3" />
  <path
     d="M9 22V19"
     stroke="#1C274C"
     stroke-width="1.5"
     stroke-linecap="round"
     id="path4" />
  <path
     d="M6 8H12"
     stroke="#1C274C"
     stroke-width="1.5"
     stroke-linecap="round"
     id="path5" />
  <path
     d="M6 11H7M12 11H9.5"
     stroke="#1C274C"
     stroke-width="1.5"
     stroke-linecap="round"
     id="path6" />
  <path
     d="M6 14H12"
     stroke="#1C274C"
     stroke-width="1.5"
     stroke-linecap="round"
     id="path7" />
  <rect
     style="stroke:#000000;stroke-dasharray:none"
     id="qrPlaceholder"
     width="20.073801"
     height="20.073801"
     x="2.1471219"
     y="24.124981"
     fill="#32ff3b"
     stroke-width="0.1" />
</svg>
