<?xml version="1.0" encoding="UTF-8" standalone="no"?>
<!-- Uploaded to: SVG Repo, www.svgrepo.com, Generator: SVG Repo Mixer Tools -->

<svg
   width="800px"
   height="800px"
   viewBox="0 0 24 48"
   fill="none"
   version="1.1"
   id="svg5"
   sodipodi:docname="clapperboard-open-play-svgrepo-com.svg"
   inkscape:version="1.3.2 (091e20e, 2023-11-25, custom)"
   xmlns:inkscape="http://www.inkscape.org/namespaces/inkscape"
   xmlns:sodipodi="http://sodipodi.sourceforge.net/DTD/sodipodi-0.dtd"
   xmlns="http://www.w3.org/2000/svg"
   xmlns:svg="http://www.w3.org/2000/svg">
  <defs
     id="defs5" />
  <sodipodi:namedview
     id="namedview5"
     pagecolor="#ffffff"
     bordercolor="#000000"
     borderopacity="0.25"
     inkscape:showpageshadow="2"
     inkscape:pageopacity="0.0"
     inkscape:pagecheckerboard="0"
     inkscape:deskcolor="#d1d1d1"
     inkscape:zoom="1.01625"
     inkscape:cx="400"
     inkscape:cy="400"
     inkscape:window-width="1920"
     inkscape:window-height="1009"
     inkscape:window-x="-8"
     inkscape:window-y="-8"
     inkscape:window-maximized="1"
     inkscape:current-layer="svg5" />
  <path
     d="M4.00153 10.9997C3.51773 9.19412 3.27584 8.29135 3.48389 7.51489C3.62019 7.00622 3.88798 6.5424 4.26035 6.17003C4.82875 5.60162 5.73152 5.35973 7.53706 4.87593L14.54 2.99949C15.2133 2.8191 15.5499 2.72891 15.8447 2.70958C17.0555 2.63022 18.1949 3.28804 18.7315 4.37629C18.8622 4.64129 18.9524 4.97791 19.1328 5.65114C19.1929 5.87556 19.223 5.98776 19.2295 6.08604C19.2559 6.48964 19.0366 6.86943 18.6739 7.04832C18.5855 7.09188 18.4733 7.12195 18.2489 7.18208L4.00153 10.9997Z"
     stroke="#1C274C"
     stroke-width="1.5"
     id="path1" />
  <path
     d="M14.7004 2.94135L14.0627 8.28861"
     stroke="#1C274C"
     stroke-width="1.5"
     stroke-linecap="round"
     id="path2" />
  <path
     d="M8.42184 4.62396L7.78409 9.97123"
     stroke="#1C274C"
     stroke-width="1.5"
     stroke-linecap="round"
     id="path3" />
  <path
     d="M14 16.5C14 16.0778 13.6028 15.793 12.8084 15.2235C12.0031 14.6462 11.6005 14.3575 11.3002 14.5695C11 14.7814 11 15.3543 11 16.5C11 17.6457 11 18.2186 11.3002 18.4305C11.6005 18.6425 12.0031 18.3538 12.8084 17.7765C13.6028 17.207 14 16.9222 14 16.5Z"
     stroke="#1C274C"
     stroke-width="1.5"
     stroke-linecap="round"
     id="path4" />
  <path
     d="M20 16C20 18.8284 20 20.2426 19.1213 21.1213C18.2426 22 16.8284 22 14 22H10C7.17157 22 5.75736 22 4.87868 21.1213C4 20.2426 4 18.8284 4 16V11H16C17.8856 11 18.8284 11 19.4142 11.5858C19.7501 11.9217 19.8934 12.3749 19.9545 13.0559"
     stroke="#1C274C"
     stroke-width="1.5"
     stroke-linecap="round"
     id="path5" />
  <rect
     style="fill:none;stroke:#000000;stroke-dasharray:none"
     id="qrPlaceholder"
     width="20.073801"
     height="20.073801"
     x="1.6881555"
     y="24.147932"
     stroke-width="0.1" />
</svg>
