<?xml version="1.0" encoding="UTF-8" standalone="no"?>
<!-- Uploaded to: SVG Repo, www.svgrepo.com, Generator: SVG Repo Mixer Tools -->

<svg
   width="800px"
   height="800px"
   viewBox="0 0 24 48"
   fill="none"
   version="1.1"
   id="svg3"
   sodipodi:docname="filters-svgrepo-com.svg"
   inkscape:version="1.3.2 (091e20e, 2023-11-25, custom)"
   xmlns:inkscape="http://www.inkscape.org/namespaces/inkscape"
   xmlns:sodipodi="http://sodipodi.sourceforge.net/DTD/sodipodi-0.dtd"
   xmlns="http://www.w3.org/2000/svg"
   xmlns:svg="http://www.w3.org/2000/svg">
  <defs
     id="defs3" />
  <sodipodi:namedview
     id="namedview3"
     pagecolor="#ffffff"
     bordercolor="#000000"
     borderopacity="0.25"
     inkscape:showpageshadow="2"
     inkscape:pageopacity="0.0"
     inkscape:pagecheckerboard="0"
     inkscape:deskcolor="#d1d1d1"
     inkscape:zoom="1.01625"
     inkscape:cx="400"
     inkscape:cy="400"
     inkscape:window-width="1920"
     inkscape:window-height="1009"
     inkscape:window-x="-8"
     inkscape:window-y="-8"
     inkscape:window-maximized="1"
     inkscape:current-layer="svg3" />
  <path
     d="M12 20.2832C13.0615 21.2333 14.4633 21.811 16 21.811C19.3137 21.811 22 19.1247 22 15.811C22 13.0152 20.0878 10.6661 17.5 10"
     stroke="#1C274C"
     stroke-width="1.5"
     id="path1" />
  <path
     d="M9 2.80269C9.88252 2.29218 10.9071 2 12 2C15.3137 2 18 4.68629 18 8C18 11.3137 15.3137 14 12 14C8.68629 14 6 11.3137 6 8C6 7.29873 6.12031 6.62556 6.34141 6"
     stroke="#1C274C"
     stroke-width="1.5"
     stroke-linecap="round"
     id="path2" />
  <path
     d="M8 21.9999V21.2499V21.9999ZM2 15.9999H1.25H2ZM2.15349 19.3755C2.3609 19.734 2.81969 19.8566 3.17824 19.6491C3.53678 19.4417 3.65931 18.9829 3.4519 18.6244L2.15349 19.3755ZM6.24994 20.9514C5.8594 20.8134 5.43091 21.0181 5.29287 21.4086C5.15484 21.7991 5.35953 22.2276 5.75007 22.3657L6.24994 20.9514ZM13.25 15.9999C13.25 18.8994 10.8995 21.2499 8 21.2499V22.7499C11.7279 22.7499 14.75 19.7279 14.75 15.9999H13.25ZM2.75 15.9999C2.75 13.5547 4.42242 11.4981 6.68694 10.9153L6.31306 9.46264C3.4019 10.2119 1.25 12.8537 1.25 15.9999H2.75ZM12.9058 14.1256C13.1279 14.7067 13.25 15.3382 13.25 15.9999H14.75C14.75 15.1523 14.5934 14.3394 14.3069 13.59L12.9058 14.1256ZM3.4519 18.6244C3.00564 17.853 2.75 16.9574 2.75 15.9999H1.25C1.25 17.2282 1.57872 18.3819 2.15349 19.3755L3.4519 18.6244ZM8 21.2499C7.38505 21.2499 6.79634 21.1445 6.24994 20.9514L5.75007 22.3657C6.45478 22.6147 7.21241 22.7499 8 22.7499V21.2499Z"
     fill="#1C274C"
     id="path3" />
  <rect
     style="stroke:#000000;stroke-dasharray:none"
     id="qrPlaceholder"
     width="20.073801"
     height="20.073801"
     x="1.5344276"
     y="24.646605"
     fill="#32ff3b"
     stroke-width="0.1" />
</svg>
