<?xml version="1.0" encoding="UTF-8" standalone="no"?>
<!-- Uploaded to: SVG Repo, www.svgrepo.com, Generator: SVG Repo Mixer Tools -->

<svg
   width="800px"
   height="800px"
   viewBox="0 0 24 48"
   fill="none"
   version="1.1"
   id="svg1"
   sodipodi:docname="flag-svgrepo-com.svg"
   inkscape:version="1.3.2 (091e20e, 2023-11-25, custom)"
   xmlns:inkscape="http://www.inkscape.org/namespaces/inkscape"
   xmlns:sodipodi="http://sodipodi.sourceforge.net/DTD/sodipodi-0.dtd"
   xmlns="http://www.w3.org/2000/svg"
   xmlns:svg="http://www.w3.org/2000/svg">
  <defs
     id="defs1" />
  <sodipodi:namedview
     id="namedview1"
     pagecolor="#ffffff"
     bordercolor="#000000"
     borderopacity="0.25"
     inkscape:showpageshadow="2"
     inkscape:pageopacity="0.0"
     inkscape:pagecheckerboard="0"
     inkscape:deskcolor="#d1d1d1"
     inkscape:zoom="1.01625"
     inkscape:cx="400"
     inkscape:cy="400"
     inkscape:window-width="1920"
     inkscape:window-height="1009"
     inkscape:window-x="-8"
     inkscape:window-y="-8"
     inkscape:window-maximized="1"
     inkscape:current-layer="svg1" />
  <path
     d="m 15.627306,34.457565 v -8 m 0,0 2.47067,-0.4941 c 1.65053,-0.3301 3.36143,-0.1731 4.92423,0.4521 1.6936,0.6774 3.5575,0.8039 5.3271,0.3615 l 0.2144,-0.0536 c 0.6251,-0.1563 1.0636,-0.7179 1.0636,-1.3622 v -7.36701 c 0,-0.78056 -0.7335,-1.3533 -1.4908,-1.16399 -1.6312,0.40781 -3.3495,0.29119 -4.9106,-0.33327 l -0.2037,-0.08146 c -1.5628,-0.62513 -3.2737,-0.78221 -4.92423,-0.4521 l -2.47067,0.49413 m 0,10 v -3 m 0,-7 v -2 m 0,2 v 3"
     stroke="#1c274c"
     stroke-width="1.5"
     stroke-linecap="round"
     id="path1" />
  <rect
     style="stroke:#000000;stroke-dasharray:none"
     id="qrPlaceholder"
     width="20.073801"
     height="20.073801"
     x="-8.8657942"
     y="14.351034"
     fill="#32ff3b"
     stroke-width="0.1" />
</svg>
