<?xml version="1.0" encoding="UTF-8" standalone="no"?>
<!-- Uploaded to: SVG Repo, www.svgrepo.com, Generator: SVG Repo Mixer Tools -->

<svg
   width="800px"
   height="800px"
   viewBox="0 0 24 48"
   fill="none"
   version="1.1"
   id="svg5"
   sodipodi:docname="full-screen-square-svgrepo-com.svg"
   inkscape:version="1.3.2 (091e20e, 2023-11-25, custom)"
   xmlns:inkscape="http://www.inkscape.org/namespaces/inkscape"
   xmlns:sodipodi="http://sodipodi.sourceforge.net/DTD/sodipodi-0.dtd"
   xmlns="http://www.w3.org/2000/svg"
   xmlns:svg="http://www.w3.org/2000/svg">
  <defs
     id="defs5" />
  <sodipodi:namedview
     id="namedview5"
     pagecolor="#ffffff"
     bordercolor="#000000"
     borderopacity="0.25"
     inkscape:showpageshadow="2"
     inkscape:pageopacity="0.0"
     inkscape:pagecheckerboard="0"
     inkscape:deskcolor="#d1d1d1"
     inkscape:zoom="1.01625"
     inkscape:cx="400"
     inkscape:cy="400"
     inkscape:window-width="1920"
     inkscape:window-height="1009"
     inkscape:window-x="-8"
     inkscape:window-y="-8"
     inkscape:window-maximized="1"
     inkscape:current-layer="svg5" />
  <path
     d="M6 9.99739C6.01447 8.29083 6.10921 7.35004 6.72963 6.72963C7.35004 6.10921 8.29083 6.01447 9.99739 6"
     stroke="#1C274C"
     stroke-width="1.5"
     stroke-linecap="round"
     id="path1" />
  <path
     d="M6 14.0007C6.01447 15.7072 6.10921 16.648 6.72963 17.2684C7.35004 17.8888 8.29083 17.9836 9.99739 17.998"
     stroke="#1C274C"
     stroke-width="1.5"
     stroke-linecap="round"
     id="path2" />
  <path
     d="M17.9976 9.99739C17.9831 8.29083 17.8883 7.35004 17.2679 6.72963C16.6475 6.10921 15.7067 6.01447 14.0002 6"
     stroke="#1C274C"
     stroke-width="1.5"
     stroke-linecap="round"
     id="path3" />
  <path
     d="M17.9976 14.0007C17.9831 15.7072 17.8883 16.648 17.2679 17.2684C16.6475 17.8888 15.7067 17.9836 14.0002 17.998"
     stroke="#1C274C"
     stroke-width="1.5"
     stroke-linecap="round"
     id="path4" />
  <path
     d="M22 12C22 16.714 22 19.0711 20.5355 20.5355C19.0711 22 16.714 22 12 22C7.28595 22 4.92893 22 3.46447 20.5355C2 19.0711 2 16.714 2 12C2 7.28595 2 4.92893 3.46447 3.46447C4.92893 2 7.28595 2 12 2C16.714 2 19.0711 2 20.5355 3.46447C21.5093 4.43821 21.8356 5.80655 21.9449 8"
     stroke="#1C274C"
     stroke-width="1.5"
     stroke-linecap="round"
     id="path5" />
  <rect
     style="stroke:#000000;stroke-dasharray:none"
     id="qrPlaceholder"
     width="20.073801"
     height="20.073801"
     x="1.6728784"
     y="24.288155"
     fill="#32ff3b"
     stroke-width="0.1" />
</svg>
