<?xml version="1.0" encoding="UTF-8" standalone="no"?>
<!-- Uploaded to: SVG Repo, www.svgrepo.com, Generator: SVG Repo Mixer Tools -->

<svg
   width="800px"
   height="800px"
   viewBox="0 0 24 48"
   fill="none"
   version="1.1"
   id="svg1"
   sodipodi:docname="like-svgrepo-com.svg"
   inkscape:version="1.3.2 (091e20e, 2023-11-25, custom)"
   xmlns:inkscape="http://www.inkscape.org/namespaces/inkscape"
   xmlns:sodipodi="http://sodipodi.sourceforge.net/DTD/sodipodi-0.dtd"
   xmlns="http://www.w3.org/2000/svg"
   xmlns:svg="http://www.w3.org/2000/svg">
  <defs
     id="defs1" />
  <sodipodi:namedview
     id="namedview1"
     pagecolor="#ffffff"
     bordercolor="#000000"
     borderopacity="0.25"
     inkscape:showpageshadow="2"
     inkscape:pageopacity="0.0"
     inkscape:pagecheckerboard="0"
     inkscape:deskcolor="#d1d1d1"
     inkscape:zoom="1.01625"
     inkscape:cx="400"
     inkscape:cy="400"
     inkscape:window-width="1920"
     inkscape:window-height="1009"
     inkscape:window-x="-8"
     inkscape:window-y="-8"
     inkscape:window-maximized="1"
     inkscape:current-layer="svg1" />
  <path
     d="m 33.196602,23.639075 -0.7391,-0.1278 z m -0.7056,4.0798 -0.739,-0.1279 z m -13.33183,4.2121 -0.74721,0.0646 z m -0.81216,-9.3927 0.74721,-0.0646 z m 7.86939,-5.86298 0.7401,0.12127 v 0 z m -0.6627,4.04456 0.7401,0.12127 v 0 z m -6.63416,0.41151 -0.48959,-0.56816 v 0 z m 1.43874,-1.2398 0.48959,0.56816 v 0 z m 2.38122,-3.65395 -0.72602,-0.18832 z m 0.4757,-1.83385 0.7259,0.18832 v 0 z m 1.6738,-0.88554 -0.2294,0.71406 v 0 z m 0.145,0.04658 0.2294,-0.71406 v 0 z m -2.95065,4.35169 0.66155,0.35337 v 0 z m 4.04275,-3.2151 -0.726,0.18832 v 0 z m -2.2305,-1.11513 -0.3256,-0.67564 v 0 z m -7.7026,19.33831 -0.74721,0.0646 z m -0.9716,-11.2365 0.74721,-0.0646 c -0.0346,-0.40015 -0.37828,-0.70202 -0.77954,-0.6847 -0.40127,0.01731 -0.71767,0.34766 -0.71767,0.7493 z m 17.2361,1.8232 -0.7055,4.0797 1.4781,0.2557 0.7055,-4.0798 z m -6.9911,9.1926 h -4.64865 v 1.5 h 4.64865 z m -5.56002,-0.8375 -0.81216,-9.3927 -1.49442,0.1292 0.81216,9.3927 z m 11.84562,-4.2754 c -0.5068,2.9306 -3.1493,5.1129 -6.2856,5.1129 v 1.5 c 3.8262,0 7.1258,-2.669 7.7637,-6.3572 z m -6.2758,-11.03695 -0.6627,4.04457 1.4803,0.24253 0.6627,-4.04456 z m -6.06707,5.14545 1.43874,-1.23975 -0.97918,-1.13631 -1.43874,1.23979 z m 4.05627,-5.27354 0.4757,-1.83385 -1.4519,-0.37664 -0.47572,1.83385 z m 1.1942,-2.19365 0.145,0.04657 0.4588,-1.42811 -0.145,-0.04657 z m -1.9147,4.03758 c 0.3119,-0.58401 0.5542,-1.2026 0.7205,-1.84393 l -1.45192,-0.37664 c -0.13635,0.52565 -0.33509,1.03351 -0.59166,1.51382 z m 2.0597,-3.99101 c 0.3064,0.09844 0.524,0.33511 0.5955,0.61086 l 1.452,-0.37663 c -0.2055,-0.79202 -0.8117,-1.41273 -1.5887,-1.66234 z m -0.8635,0.31323 c 0.0351,-0.13501 0.1326,-0.25908 0.2801,-0.33017 l -0.6512,-1.35129 c -0.532,0.25634 -0.9316,0.72952 -1.0808,1.30482 z m 0.2801,-0.33017 c 0.1347,-0.06493 0.2933,-0.07623 0.4384,-0.02963 l 0.4588,-1.42811 c -0.5097,-0.16375 -1.0658,-0.1261 -1.5484,0.10645 z m 2.1539,8.17616 h 5.1811 v -1.5 h -5.1811 z m -9.43489,10.4219 -0.9716,-11.2365 -1.49442,0.1292 0.9716,11.2365 z m -0.96881,0.1066 v -11.2785 h -1.5 v 11.2785 z m -0.52561,0.0226 c -0.01319,-0.1525 0.10707,-0.2853 0.26232,-0.2853 v 1.5 c 0.72597,0 1.29451,-0.6221 1.2321,-1.3439 z m 11.51071,-16.19261 c 0.1245,-0.76013 0.089,-1.53792 -0.1044,-2.28349 l -1.452,0.37664 c 0.141,0.54339 0.1669,1.11029 0.0761,1.66432 z m -6.13875,15.90731 c -0.47391,0 -0.87034,-0.363 -0.91137,-0.8375 l -1.49442,0.1292 c 0.10796,1.2485 1.15214,2.2083 2.40579,2.2083 z m 0.03012,-12.24415 c 0.67985,-0.58585 1.41273,-1.28318 1.89703,-2.18986 l -1.32308,-0.70675 c -0.34638,0.64843 -0.89792,1.19569 -1.55313,1.7603 z m 13.08773,3.30715 c 0.2553,-1.4765 -0.8801,-2.8288 -2.3794,-2.8288 v 1.5 c 0.5666,0 0.9984,0.5117 0.9013,1.0732 z m -18.22749,8.937 c 0.14621,0 0.26329,0.1184 0.26329,0.2627 h -1.5 c 0,0.6826 0.55289,1.2373 1.23671,1.2373 z m 9.10539,-12.10529 c -0.1577,0.96289 0.5845,1.83949 1.5616,1.83949 v -1.5 c -0.0499,0 -0.0898,-0.04519 -0.0813,-0.09695 z m -5.71928,1.87509 c -0.02542,-0.294 0.09193,-0.582 0.31491,-0.7742 l -0.97918,-1.13627 c -0.58833,0.50698 -0.89706,1.26597 -0.83015,2.03967 z"
     fill="#1c274c"
     id="path1" />
  <rect
     style="stroke:#000000;stroke-dasharray:none"
     id="qrPlaceholder"
     width="20.073801"
     height="20.073801"
     x="-7.7418818"
     y="13.776053"
     fill="#32ff3b"
     stroke-width="0.1" />
</svg>
